<?xml version="1.0" encoding="UTF-8" standalone="no"?>
<svg width="29px" height="21px" viewBox="0 0 29 21" version="1.1" xmlns="http://www.w3.org/2000/svg" xmlns:xlink="http://www.w3.org/1999/xlink">
    <!-- Generator: Sketch 42 (36781) - http://www.bohemiancoding.com/sketch -->
    <title>ic_app_wifi</title>
    <desc>Created with Sketch.</desc>
    <defs></defs>
    <g id="Assets" stroke="none" stroke-width="1" fill="none" fill-rule="evenodd">
        <g id="Artboard" transform="translate(-1117.000000, -316.000000)" fill-rule="nonzero" fill="#555555">
            <path d="M1145.66766,321.955135 C1145.88922,322.179995 1146,322.475735 1146,322.771475 C1146,323.021999 1145.91932,323.272523 1145.76038,323.480274 C1145.73268,323.518158 1145.70138,323.552376 1145.66766,323.587816 C1145.22334,324.038759 1144.50327,324.038759 1144.05894,323.587816 C1140.58383,320.063375 1136.03944,318.310931 1131.48302,318.308487 C1126.94105,318.310931 1122.4087,320.069486 1118.94081,323.587816 C1118.49649,324.038759 1117.77642,324.038759 1117.3321,323.587816 C1117.29958,323.552376 1117.26828,323.518158 1117.24058,323.480274 C1116.89139,323.026887 1116.92269,322.370637 1117.3321,321.955135 C1117.76077,321.521301 1118.20268,321.110687 1118.65784,320.723291 C1122.35934,317.580135 1126.92539,315.997559 1131.48302,316.000003 C1136.05149,315.997559 1140.63079,317.572803 1144.34312,320.723291 C1144.79828,321.110687 1145.24019,321.521301 1145.66766,321.955135 Z M1131.48182,321.372209 C1135.28205,321.372209 1139.09673,322.841133 1141.99748,325.785092 C1142.22024,326.012397 1142.33102,326.308137 1142.33102,326.601433 C1142.33102,326.897173 1142.22024,327.192913 1141.99748,327.417774 C1141.55436,327.868716 1140.83429,327.868716 1140.38996,327.417774 C1137.92872,324.921091 1134.71129,323.681915 1131.48182,323.681915 C1128.268,323.681915 1125.06501,324.928423 1122.611,327.417774 C1122.16667,327.868716 1121.44661,327.868716 1121.00228,327.417774 C1120.55796,326.966831 1120.55796,326.236035 1121.00228,325.785092 C1123.89219,322.852132 1127.69122,321.372209 1131.48182,321.372209 Z M1131.49386,326.532997 C1133.98761,326.530553 1136.4922,327.499652 1138.39593,329.430518 C1138.61869,329.657822 1138.72947,329.953562 1138.72947,330.246858 C1138.72947,330.542599 1138.61869,330.838339 1138.39593,331.063199 C1137.95281,331.514142 1137.23153,331.514142 1136.78721,331.065643 C1135.32419,329.580832 1133.41444,328.843926 1131.49386,328.841482 C1129.57929,328.843926 1127.67436,329.580832 1126.21255,331.065643 L1126.21255,331.063199 C1125.76943,331.514142 1125.04936,331.514142 1124.60504,331.065643 C1124.16071,330.614701 1124.16071,329.88146 1124.60504,329.430518 C1126.50395,327.50454 1129.00372,326.530553 1131.49386,326.532997 Z M1134.06588,333.051502 C1134.3344,333.256809 1134.50659,333.584323 1134.50538,333.949721 C1134.50538,334.238129 1134.40063,334.500873 1134.22482,334.701292 L1134.1297,334.796613 L1132.32591,336.62727 C1132.32109,336.632158 1132.31748,336.637046 1132.31146,336.641934 L1132.2657,336.689595 C1132.26089,336.694483 1132.25487,336.699372 1132.25005,336.70426 C1132.05137,336.88757 1131.78767,337 1131.49988,337 C1131.20968,337 1130.94598,336.88757 1130.7485,336.70426 L1130.67264,336.628492 L1128.8243,334.752619 C1128.62321,334.547312 1128.49798,334.263792 1128.49798,333.950943 C1128.49798,333.568436 1128.68342,333.232368 1128.97,333.024616 C1129.00733,333.000175 1129.04466,332.976956 1129.08199,332.952515 C1129.7864,332.516237 1130.61123,332.260825 1131.49867,332.260825 C1132.37769,332.260825 1133.19529,332.511348 1133.8961,332.941516 C1133.8985,332.941516 1133.8985,332.94396 1133.89971,332.94396 C1133.9563,332.976956 1134.01169,333.013618 1134.06588,333.051502 Z" id="ic_app_wifi"></path>
        </g>
    </g>
</svg>