<?xml version="1.0" encoding="UTF-8" standalone="no"?>
<svg width="16px" height="20px" viewBox="0 0 16 20" version="1.1" xmlns="http://www.w3.org/2000/svg" xmlns:xlink="http://www.w3.org/1999/xlink">
    <!-- Generator: Sketch 42 (36781) - http://www.bohemiancoding.com/sketch -->
    <title>ic_app_juryroom</title>
    <desc>Created with Sketch.</desc>
    <defs></defs>
    <g id="Assets" stroke="none" stroke-width="1" fill="none" fill-rule="evenodd">
        <g id="Artboard" transform="translate(-963.000000, -316.000000)" fill="#555555">
            <path d="M970.142866,316.714287 C970.142866,316.323661 969.819205,316 969.428579,316 C969.037954,316 968.714293,316.323661 968.714293,316.714287 L968.714293,321.357149 C968.714293,321.747775 968.390631,322.071436 968.000006,322.071436 C967.60938,322.071436 967.285719,321.747775 967.285719,321.357149 L967.285719,316.714287 C967.285719,316.323661 966.962058,316 966.571433,316 C966.180807,316 965.857146,316.323661 965.857146,316.714287 L965.857146,321.357149 C965.857146,321.747775 965.533485,322.071436 965.14286,322.071436 C964.752234,322.071436 964.428573,321.747775 964.428573,321.357149 L964.428573,316.714287 C964.428573,316.323661 964.104912,316 963.714287,316 C963.323661,316 963,316.323661 963,316.714287 L963,323.857152 C963,324.761171 963.580358,325.575904 964.428573,325.877244 L964.428573,334.571451 C964.428573,335.352702 965.075895,336.000024 965.857146,336.000024 L967.285719,336.000024 C968.06697,336.000024 968.714293,335.352702 968.714293,334.571451 L968.714293,325.877244 C969.562508,325.575904 970.142866,324.761171 970.142866,323.857152 L970.142866,316.714287 Z M978.714304,316.714287 C978.714304,316.323661 978.390643,316 978.000018,316 L975.142872,316 C973.178584,316 972.571439,321.82103 972.571439,326.571433 L972.571439,328.500015 C972.571439,328.689747 972.73885,328.857158 972.928582,328.857158 L974.428585,328.857158 L974.428585,334.571451 C974.428585,335.352702 975.075907,336.000024 975.857158,336.000024 L977.285731,336.000024 C978.066982,336.000024 978.714304,335.352702 978.714304,334.571451 L978.714304,316.714287 Z" id="ic_app_juryroom"></path>
        </g>
    </g>
</svg>