<?xml version="1.0" encoding="UTF-8" standalone="no"?>
<svg width="47px" height="21px" viewBox="0 0 47 21" version="1.1" xmlns="http://www.w3.org/2000/svg" xmlns:xlink="http://www.w3.org/1999/xlink">
    <!-- Generator: Sketch 42 (36781) - http://www.bohemiancoding.com/sketch -->
    <title>ic_app_adp</title>
    <desc>Created with Sketch.</desc>
    <defs></defs>
    <g id="Assets" stroke="none" stroke-width="1" fill="none" fill-rule="evenodd">
        <g transform="translate(-788.000000, -316.000000)" id="ic_app_adp" fill-rule="nonzero" fill="#555555">
            <path d="M829.423936,316 C830.343423,316 831.080045,316.729167 831.080045,317.63835 C831.080045,318.538433 830.343423,319.268708 829.423936,319.268708 C828.500893,319.268708 827.758998,318.538433 827.758998,317.63835 C827.758998,316.729167 828.500893,316 829.423936,316 Z M829.423936,316.28595 C828.664619,316.28595 828.051311,316.890925 828.051311,317.63835 C828.051311,318.376617 828.664619,318.981592 829.423936,318.981592 C830.179697,318.981592 830.789568,318.376617 830.789568,317.63835 C830.789568,316.890925 830.179697,316.28595 829.423936,316.28595 Z M829.610239,317.451508 C829.697643,317.360333 829.697643,317.207675 829.719627,317.042475 C829.733493,316.929658 829.764188,316.8078 829.786172,316.699533 L830.175016,316.699533 C830.10847,316.872725 830.086486,317.073217 830.05988,317.255508 C830.028651,317.46405 829.99849,317.581358 829.728871,317.6338 L829.728871,317.6429 C829.989838,317.695283 830.126425,317.868475 830.126425,318.090667 C830.126425,318.524725 829.754885,318.62045 829.397803,318.62045 L828.765889,318.62045 L828.765889,316.699533 L829.07035,316.699533 L829.07035,317.530083 L829.327288,317.530083 C829.432528,317.520983 829.533857,317.530083 829.610239,317.451508 Z M829.07035,317.829742 L829.07035,318.320792 L829.436617,318.320792 C829.680281,318.320792 829.746233,318.246767 829.746233,318.103208 C829.746233,317.956208 829.680281,317.837733 829.393241,317.829742 L829.07035,317.829742 L829.07035,317.829742 Z M835,328.749042 C835,333.304 831.246141,337 826.616704,337 L819.380324,337 L819.380324,333.485767 C817.422657,335.640483 814.583072,337 811.417159,337 L800.442208,337 L788,316 L796.464655,316 L799.131211,320.499775 L804.521031,320.499775 L804.521031,316 L811.417159,316 C814.583072,316 817.422657,317.355783 819.380324,319.510267 L819.380324,316 L826.616704,316 L826.616704,320.499775 C831.246141,320.499775 835,324.192858 835,328.749042 Z M811.417159,318.62045 L807.18812,318.62045 L807.18812,323.124775 L797.600312,323.124775 L794.933756,318.62045 L792.70813,318.62045 L802.037875,334.375 L811.417159,334.375 C815.447036,334.375 818.780823,331.439258 819.333985,327.623967 L822.046346,327.623967 L822.046346,334.375 L826.616704,334.375 C829.774617,334.375 832.332911,331.855642 832.332911,328.749042 C832.332911,325.6432 829.774617,323.124775 826.616704,323.124775 L823.949615,323.124775 L823.949615,318.62045 L822.046346,318.62045 L822.046346,323.124775 L818.646606,323.124775 C817.361267,320.461042 814.609737,318.62045 811.417159,318.62045 Z M826.616704,332.498825 L823.949615,332.498825 L823.949615,329.8761 L826.616704,329.8761 C827.249745,329.8761 827.758998,329.368542 827.758998,328.749042 C827.758998,328.125225 827.249745,327.623967 826.616704,327.623967 L823.949615,327.623967 L823.949615,324.998967 L826.616704,324.998967 C828.721387,324.998967 830.426205,326.67885 830.426205,328.749042 C830.426205,330.819758 828.721387,332.498825 826.616704,332.498825 Z M804.521031,332.498825 L804.521031,327.623967 L800.266867,327.623967 L798.713095,324.998967 L807.18812,324.998967 L807.18812,332.498825 L804.521031,332.498825 L804.521031,332.498825 Z M817.514091,326.5 C817.514091,329.812867 814.7833,332.498825 811.417159,332.498825 L809.092515,332.498825 L809.092515,329.8761 L811.417159,329.8761 C813.31231,329.8761 814.848068,328.362233 814.848068,326.5 C814.848068,324.6338 813.31231,323.124775 811.417159,323.124775 L809.092515,323.124775 L809.092515,320.499775 L811.417159,320.499775 C814.7833,320.499775 817.514091,323.185733 817.514091,326.5 Z" transform="translate(811.500000, 326.500000) scale(1, -1) translate(-811.500000, -326.500000) "></path>
        </g>
    </g>
</svg>