<?xml version="1.0" encoding="UTF-8" standalone="no"?>
<svg width="17px" height="14px" viewBox="0 0 17 14" version="1.1" xmlns="http://www.w3.org/2000/svg" xmlns:xlink="http://www.w3.org/1999/xlink">
    <!-- Generator: Sketch 42 (36781) - http://www.bohemiancoding.com/sketch -->
    <title>ic_email</title>
    <desc>Created with Sketch.</desc>
    <defs></defs>
    <g id="Assets" stroke="none" stroke-width="1" fill="none" fill-rule="evenodd">
        <g id="Artboard" transform="translate(-1122.000000, -209.000000)" fill="#555555">
            <path d="M1139.00002,213.306925 L1139.00002,220.8393 C1139.00002,221.674122 1138.31698,222.357159 1137.48216,222.357159 L1123.51786,222.357159 C1122.68304,222.357159 1122,221.674122 1122,220.8393 L1122,213.306925 C1122.2846,213.619983 1122.60714,213.895095 1122.95815,214.132261 C1124.53293,215.204248 1126.12668,216.276236 1127.673,217.405144 C1128.46987,217.993314 1129.45648,218.714297 1130.49052,218.714297 L1130.5095,218.714297 C1131.54354,218.714297 1132.53015,217.993314 1133.32702,217.405144 C1134.87334,216.285723 1136.46709,215.204248 1138.05136,214.132261 C1138.39288,213.895095 1138.71542,213.619983 1139.00002,213.306925 Z M1139.00002,210.517859 C1139.00002,211.58036 1138.21263,212.538509 1137.37781,213.117192 C1135.8979,214.141747 1134.4085,215.166302 1132.93807,216.200343 C1132.32144,216.627241 1131.27791,217.50001 1130.5095,217.50001 L1130.49052,217.50001 C1129.72211,217.50001 1128.67858,216.627241 1128.06195,216.200343 C1126.59152,215.166302 1125.10212,214.141747 1123.6317,213.117192 C1122.95815,212.661835 1122,211.589847 1122,210.726565 C1122,209.796876 1122.50279,209 1123.51786,209 L1137.48216,209 C1138.3075,209 1139.00002,209.683037 1139.00002,210.517859 Z" id="ic_email"></path>
        </g>
    </g>
</svg>