<?xml version="1.0" encoding="UTF-8" standalone="no"?>
<svg width="14px" height="14px" viewBox="0 0 14 14" version="1.1" xmlns="http://www.w3.org/2000/svg" xmlns:xlink="http://www.w3.org/1999/xlink">
    <!-- Generator: Sketch 42 (36781) - http://www.bohemiancoding.com/sketch -->
    <title>ic_phone</title>
    <desc>Created with Sketch.</desc>
    <defs></defs>
    <g id="Assets" stroke="none" stroke-width="1" fill="none" fill-rule="evenodd">
        <g id="Artboard" transform="translate(-644.000000, -319.000000)" fill="#555555">
            <path d="M657.357159,329.54912 C657.357159,329.482713 657.357159,329.416307 657.328699,329.349901 C657.262293,329.150682 656.797448,328.941976 656.607716,328.84711 C656.066979,328.543538 655.516755,328.249453 654.985504,327.936395 C654.738852,327.784609 654.43528,327.50001 654.141195,327.50001 C653.562511,327.50001 652.718202,329.217088 652.205925,329.217088 C651.949786,329.217088 651.617755,328.979923 651.390076,328.84711 C649.663511,327.888961 648.468197,326.693648 647.510049,324.967083 C647.377236,324.739404 647.140071,324.407373 647.140071,324.151234 C647.140071,323.638956 648.857149,322.794647 648.857149,322.215964 C648.857149,321.921878 648.57255,321.618307 648.420764,321.371655 C648.107706,320.840404 647.813621,320.29018 647.510049,319.749443 C647.415183,319.55971 647.206477,319.094866 647.007258,319.02846 C646.940852,319 646.874445,319 646.808039,319 C646.466521,319 645.802458,319.151786 645.489399,319.294085 C645.024555,319.493304 644.720983,320.024555 644.483818,320.451453 C644.180246,321.011163 644,321.58036 644,322.215964 C644,323.098219 644.360492,323.895095 644.654577,324.701458 C644.863282,325.280141 645.119421,325.839852 645.441966,326.361616 C646.438061,327.974341 648.382818,329.919098 649.995543,330.915193 C650.517307,331.237738 651.077017,331.493877 651.655701,331.702582 C652.462064,331.996667 653.25894,332.357159 654.141195,332.357159 C654.776799,332.357159 655.345996,332.176913 655.905706,331.873341 C656.332604,331.636176 656.863855,331.332604 657.063074,330.86776 C657.205373,330.554701 657.357159,329.890638 657.357159,329.54912 Z" id="ic_phone"></path>
        </g>
    </g>
</svg>