<?xml version="1.0" encoding="UTF-8" standalone="no"?>
<svg width="12px" height="12px" viewBox="0 0 12 12" version="1.1" xmlns="http://www.w3.org/2000/svg" xmlns:xlink="http://www.w3.org/1999/xlink">
    <!-- Generator: Sketch 42 (36781) - http://www.bohemiancoding.com/sketch -->
    <title>ic_search_dark_small</title>
    <desc>Created with Sketch.</desc>
    <defs></defs>
    <g id="Assets" stroke="none" stroke-width="1" fill="none" fill-rule="evenodd">
        <g id="Artboard" transform="translate(-805.000000, -100.000000)" fill="#555555">
            <path d="M805,104.8 C805,107.418182 807.091503,109.6 809.653595,109.6 C810.751634,109.6 811.797386,109.218182 812.581699,108.509091 C812.633987,108.563636 812.633987,108.618182 812.686275,108.727273 L815.614379,111.727273 C815.771242,111.890909 815.980392,112 816.189542,112 C816.398693,112 816.607843,111.945455 816.764706,111.727273 C817.078431,111.4 817.078431,110.854545 816.764706,110.527273 L813.888889,107.527273 C813.784314,107.472727 813.732026,107.363636 813.627451,107.363636 C814.098039,106.6 814.359477,105.727273 814.359477,104.8 C814.30719,102.181818 812.215686,100 809.653595,100 C807.091503,100 805,102.181818 805,104.8 Z M812.895425,104.8 C812.895425,105.4 812.738562,106 812.424837,106.545455 L812.111111,107.090909 L811.69281,107.418182 C811.117647,107.909091 810.385621,108.181818 809.653595,108.181818 C807.875817,108.181818 806.411765,106.709091 806.411765,104.854545 C806.411765,103 807.875817,101.472727 809.653595,101.472727 C811.431373,101.472727 812.895425,102.945455 812.895425,104.8 Z" id="ic_search_dark_small"></path>
        </g>
    </g>
</svg>