<?xml version="1.0" encoding="UTF-8" standalone="no"?>
<svg width="23px" height="24px" viewBox="0 0 23 24" version="1.1" xmlns="http://www.w3.org/2000/svg" xmlns:xlink="http://www.w3.org/1999/xlink">
    <!-- Generator: Sketch 42 (36781) - http://www.bohemiancoding.com/sketch -->
    <title>ic_search_white</title>
    <desc>Created with Sketch.</desc>
    <defs></defs>
    <g id="Assets" stroke="none" stroke-width="1" fill="none" fill-rule="evenodd">
        <g id="Artboard" transform="translate(-640.000000, -94.000000)" fill="#FFFFFF">
            <path d="M648.91939,94 C644.008715,94 640,98.2111749 640,103.264585 C640,108.317995 644.008715,112.52917 648.91939,112.52917 C651.023965,112.52917 653.028322,111.792214 654.53159,110.423582 C654.631808,110.528862 654.631808,110.634141 654.732026,110.8447 L660.344227,116.635065 C660.64488,116.950903 661.045752,117.161462 661.446623,117.161462 C661.847495,117.161462 662.248366,117.056183 662.54902,116.635065 C663.150327,116.003389 663.150327,114.950595 662.54902,114.318919 L657.037037,108.528554 C656.836601,108.423274 656.736383,108.212715 656.535948,108.212715 C657.437908,106.738804 657.938998,105.054334 657.938998,103.264585 C657.83878,98.2111749 653.830065,94 648.91939,94 L648.91939,94 Z M648.91939,96.8425431 C652.326797,96.8425431 655.132898,99.6850862 655.132898,103.264585 C655.132898,104.422658 654.832244,105.580731 654.230937,106.633525 L653.62963,107.686319 L652.827887,108.317995 C651.72549,109.265509 650.32244,109.791906 648.91939,109.791906 C645.511983,109.791906 642.705882,106.949363 642.705882,103.369864 C642.705882,99.7903655 645.511983,96.8425431 648.91939,96.8425431 L648.91939,96.8425431 Z" id="ic_search_white"></path>
        </g>
    </g>
</svg>