<?xml version="1.0" encoding="UTF-8" standalone="no"?>
<svg width="50px" height="50px" viewBox="0 0 50 50" version="1.1" xmlns="http://www.w3.org/2000/svg" xmlns:xlink="http://www.w3.org/1999/xlink">
    <!-- Generator: Sketch 42 (36781) - http://www.bohemiancoding.com/sketch -->
    <title>img_avatar_light</title>
    <desc>Created with Sketch.</desc>
    <defs>
        <path d="M24.9992188,50 C11.192619,50 0,38.8058186 0,24.9992188 C0,11.1941814 11.192619,0 24.9992188,0 C38.8065998,0 49.9984375,11.1941814 49.9984375,24.9992188 C49.9992188,38.8058186 38.8065998,50 24.9992188,50 L24.9992188,50 Z" id="path-1"></path>
    </defs>
    <g id="Assets" stroke="none" stroke-width="1" fill="none" fill-rule="evenodd">
        <g id="Artboard" transform="translate(-786.000000, -398.000000)">
            <g id="Avatar-Lighter" transform="translate(786.000000, 398.000000)">
                <g id="Group-2">
                    <mask id="mask-2" fill="white">
                        <use xlink:href="#path-1"></use>
                    </mask>
                    <use id="Shape" fill="#8E9297" xlink:href="#path-1"></use>
                    <path d="M24.9992188,50 C11.192619,50 0,38.8058186 0,24.9992188 C0,11.1941814 11.192619,0 24.9992188,0 C38.8065998,0 49.9984375,11.1941814 49.9984375,24.9992188 C49.9992188,38.8058186 38.8065998,50 24.9992188,50 L24.9992188,50 Z" id="Shape" fill="#C6C6C6" mask="url(#mask-2)"></path>
                    <text id="" fill="#EAEAEA" mask="url(#mask-2)" font-family="FontAwesome" font-size="48" font-weight="normal">
                        <tspan x="6.8627451" y="47.8627451"></tspan>
                    </text>
                </g>
            </g>
        </g>
    </g>
</svg>