<?xml version="1.0" encoding="UTF-8" standalone="no"?>
<svg width="310px" height="32px" viewBox="0 0 310 32" version="1.1" xmlns="http://www.w3.org/2000/svg" xmlns:xlink="http://www.w3.org/1999/xlink">
    <!-- Generator: Sketch 42 (36781) - http://www.bohemiancoding.com/sketch -->
    <title>logo_header</title>
    <desc>Created with Sketch.</desc>
    <defs></defs>
    <g id="Page-1" stroke="none" stroke-width="1" fill="none" fill-rule="evenodd">
        <path d="M-2.84217094e-14,27.5619498 L-2.84217094e-14,5.40390304 L13.986481,5.40390304 C23.0990128,5.40390304 24.7933237,9.498066 24.7933237,12.2494443 C24.7933237,14.9994224 23.0990128,19.0935854 13.986481,19.0627811 L5.50931581,19.0627811 L5.50931581,27.5619498 L-2.84217094e-14,27.5619498 Z M5.50931581,8.5613372 L5.50931581,15.8731426 L13.6680964,15.8731426 C16.2109654,15.8731426 19.2840079,15.0302267 19.2840079,12.2186401 C19.2840079,9.3104402 16.7411389,8.5613372 13.7746921,8.5613372 L5.50931581,8.5613372 Z M46.0908688,15.7490855 L46.0908688,23.9990199 C46.0908688,24.8741402 46.3026577,25.1877833 47.2564089,25.1877833 C47.5733909,25.1877833 47.9969686,25.1877833 48.5271421,25.1233745 L48.5271421,27.5933141 C47.7865823,27.7809399 46.1960619,27.9993699 45.3489064,27.9993699 C43.3348083,27.9993699 41.8522862,27.4995012 41.4287085,26.0306992 C39.4160129,27.4056883 36.1311815,27.9993699 33.4831193,27.9993699 C29.3497299,27.9993699 25.534725,26.4367551 25.534725,23.3115253 C25.534725,19.3111753 30.1968854,18.6558852 34.435468,18.3114378 C38.0386839,17.8423733 41.3221127,18.1252122 41.3221127,16.0305242 C41.3221127,14.2172749 38.5674548,13.8742277 36.5547593,13.8742277 C33.6935056,13.8742277 31.6808101,14.6863394 31.4690212,16.4057758 L26.3832831,16.4057758 C26.8068609,12.2808086 31.7874058,11.0612409 36.8731438,11.0612409 C41.4287085,11.0612409 46.0908688,12.3424171 46.0908688,15.7490855 Z M41.0051307,22.1549663 L41.0051307,19.5310055 C39.4160129,20.2170999 36.978337,20.1862956 34.7538526,20.4677343 C32.6345613,20.7183688 30.6218657,21.2812462 30.6218657,23.1547038 C30.6218657,24.7495231 33.5883125,25.1877833 35.2826234,25.1877833 C37.5085105,25.1877833 41.0051307,24.4050757 41.0051307,22.1549663 Z M71.4154881,27.5619498 L66.3283474,27.5619498 L66.3283474,25.3118404 C65.0562116,26.9360637 62.3015537,28.00021 59.7600872,28.00021 C53.7205979,28.00021 51.1777289,25.8747178 51.1777289,21.6867419 L51.1777289,11.4989411 L56.263467,11.4989411 L56.263467,21.3422946 C56.263467,24.1874858 57.8525848,25.1872232 60.6072427,25.1872232 C64.8458253,25.1872232 66.3283474,23.3123655 66.3283474,20.8130218 L66.3283474,11.4989411 L71.4154881,11.4989411 L71.4154881,27.5619498 Z M76.5002443,27.5613897 L76.5002443,5.40334296 L81.4807892,5.40334296 L81.4807892,27.5613897 L76.5002443,27.5613897 Z M90.6985142,32 L90.6985142,0 L91.97065,0 L91.97065,32 L90.6985142,32 Z M98.1160337,5.40446311 L103.837138,5.40446311 L109.559646,22.3425921 L109.664839,22.3425921 L116.022713,5.40446311 L121.743817,5.40446311 L127.995096,22.3425921 L128.101691,22.3425921 L133.927989,5.40446311 L139.651899,5.40446311 L130.857752,27.5625098 L125.24184,27.5625098 L118.883966,10.6243809 L118.778773,10.6243809 L112.207708,27.5625098 L106.486603,27.5625098 L98.1160337,5.40446311 Z M160.312955,20.4356699 L143.465221,20.4356699 C143.465221,22.967218 145.374126,25.1879233 149.611306,25.1879233 C152.577752,25.1879233 154.272063,24.3114028 155.225815,22.5303579 L159.995973,22.5303579 C158.935626,26.0308392 154.590448,27.9995099 149.611306,27.9995099 C142.406276,27.9995099 138.380885,24.4990286 138.380885,19.5605496 C138.380885,14.9987223 142.618065,11.0613809 149.399517,11.0613809 C156.711142,11.0613809 161.160111,15.6554126 160.312955,20.4356699 Z M143.465221,18.1253522 L155.225815,18.1253522 C155.120621,15.8738427 152.894734,13.8743677 149.399517,13.8743677 C146.010895,13.8743677 143.571816,15.7492255 143.465221,18.1253522 Z M164.337926,8.7484029 L164.337926,5.40474315 L169.318471,5.40474315 L169.318471,8.7484029 L164.337926,8.7484029 Z M164.337926,27.5627899 L164.337926,11.4997812 L169.318471,11.4997812 L169.318471,27.5627899 L164.337926,27.5627899 Z M178.324968,22.4051807 C178.643352,24.4676643 180.869239,25.1873633 183.515899,25.1873633 C185.424804,25.1873633 188.813426,24.9367288 188.709635,23.0926752 C188.604442,21.2178174 184.896033,20.9993874 181.186221,20.4351098 C177.372619,19.8736326 173.769403,18.9369038 173.769403,15.6548525 C173.769403,12.1557714 179.172123,11.0608209 183.410706,11.0608209 C188.074269,11.0608209 192.418044,12.4358099 193.053411,15.9992999 L187.757287,15.9992999 C187.227113,14.3428721 185.211612,13.8738076 183.093724,13.8738076 C181.611202,13.8738076 178.853739,14.1244421 178.853739,15.5302354 C178.853739,17.2482716 182.56355,17.4989061 186.271959,18.0925877 C189.980368,18.6862694 193.795373,19.6243984 193.795373,22.7790321 C193.795373,26.5931566 188.180864,27.9989499 183.515899,27.9989499 C177.691004,27.9989499 173.345825,26.1857005 173.345825,22.4051807 L178.324968,22.4051807 Z M201.63619,22.4051807 C201.847979,24.4676643 204.072463,25.1873633 206.828524,25.1873633 C208.736026,25.1873633 212.019455,24.9367288 211.912859,23.0926752 C211.806264,21.2178174 208.099257,20.9993874 204.390848,20.4351098 C200.682439,19.8736326 197.080625,18.9369038 197.080625,15.6548525 C197.080625,12.1557714 202.483346,11.0608209 206.616735,11.0608209 C211.384088,11.0608209 215.621268,12.4358099 216.25944,15.9992999 L210.960511,15.9992999 C210.53553,14.3428721 208.522835,13.8738076 206.299753,13.8738076 C204.814426,13.8738076 202.059768,14.1244421 202.059768,15.5302354 C202.059768,17.2482716 205.874773,17.4989061 209.581779,18.0925877 C213.291591,18.6862694 217,19.6243984 217,22.7790321 C217,26.5931566 211.489282,27.9989499 206.721928,27.9989499 C200.89563,27.9989499 196.657048,26.1857005 196.550452,22.4051807 L201.63619,22.4051807 Z M234.328,27 L234.328,3.96 L236.504,3.96 L236.504,27 L234.328,27 Z M244.088,27 L242.168,27 L242.168,10.424 L244.088,10.424 L244.088,12.728 C244.856004,11.9173293 245.650663,11.2560026 246.472,10.744 C247.293337,10.2319974 248.279994,9.976 249.432,9.976 C250.456005,9.976 251.405329,10.1519982 252.28,10.504 C253.154671,10.8560018 253.890664,11.469329 254.488,12.344 C254.893335,12.9413363 255.133333,13.5546635 255.208,14.184 C255.282667,14.8133365 255.32,15.4693299 255.32,16.152 L255.32,27 L253.4,27 L253.4,16.184 C253.4,14.6906592 253.069337,13.5706704 252.408,12.824 C251.746663,12.0773296 250.648008,11.704 249.112,11.704 C248.514664,11.704 247.970669,11.7946658 247.48,11.976 C246.989331,12.1573342 246.546669,12.3973318 246.152,12.696 C245.757331,12.9946682 245.421335,13.3359981 245.144,13.72 C244.866665,14.1040019 244.653334,14.5093312 244.504,14.936 C244.311999,15.469336 244.194667,15.9813309 244.152,16.472 C244.109333,16.9626691 244.088,17.4959971 244.088,18.072 L244.088,27 Z M261.144,20.12 C261.229334,21.1440051 261.458665,22.0133298 261.832,22.728 C262.205335,23.4426702 262.68533,24.0239978 263.272,24.472 C263.85867,24.9200022 264.535996,25.2453323 265.304,25.448 C266.072004,25.6506677 266.893329,25.752 267.768,25.752 C268.792005,25.752 269.67733,25.6240013 270.424,25.368 C271.17067,25.1119987 271.778664,24.7653355 272.248,24.328 C272.717336,23.8906645 273.063999,23.3840029 273.288,22.808 C273.512001,22.2319971 273.624,21.6240032 273.624,20.984 C273.624,20.0879955 273.421335,19.3626694 273.016,18.808 C272.610665,18.2533306 272.08267,17.8000018 271.432,17.448 C270.78133,17.0959982 270.034671,16.8133344 269.192,16.6 C268.349329,16.3866656 267.485338,16.1786677 266.6,15.976 C265.714662,15.7733323 264.850671,15.5333347 264.008,15.256 C263.165329,14.9786653 262.41867,14.6053357 261.768,14.136 C261.11733,13.6666643 260.589335,13.0640037 260.184,12.328 C259.778665,11.5919963 259.576,10.6586723 259.576,9.528 C259.576,8.73866272 259.741332,7.9706704 260.072,7.224 C260.402668,6.4773296 260.89333,5.81600288 261.544,5.24 C262.19467,4.66399712 263.010662,4.20533504 263.992,3.864 C264.973338,3.52266496 266.103994,3.352 267.384,3.352 C268.68534,3.352 269.821328,3.53333152 270.792,3.896 C271.762672,4.25866848 272.567997,4.75466352 273.208,5.384 C273.848003,6.01333648 274.327998,6.74399584 274.648,7.576 C274.968002,8.40800416 275.128,9.29332864 275.128,10.232 L273.048,10.232 C273.048,9.35732896 272.893335,8.6000032 272.584,7.96 C272.274665,7.3199968 271.853336,6.79733536 271.32,6.392 C270.786664,5.98666464 270.17867,5.68800096 269.496,5.496 C268.81333,5.30399904 268.109337,5.208 267.384,5.208 C266.274661,5.208 265.341337,5.36266512 264.584,5.672 C263.826663,5.98133488 263.224002,6.38133088 262.776,6.872 C262.327998,7.36266912 262.018668,7.90666368 261.848,8.504 C261.677332,9.10133632 261.645333,9.69866368 261.752,10.296 C261.880001,11.0426704 262.178664,11.6399978 262.648,12.088 C263.117336,12.5360022 263.69333,12.9039986 264.376,13.192 C265.05867,13.4800014 265.810663,13.7146658 266.632,13.896 C267.453337,14.0773342 268.290662,14.2693323 269.144,14.472 C269.997338,14.6746677 270.823996,14.9146653 271.624,15.192 C272.424004,15.4693347 273.13333,15.8426643 273.752,16.312 C274.37067,16.7813357 274.866665,17.3839963 275.24,18.12 C275.613335,18.8560037 275.8,19.7786611 275.8,20.888 C275.8,23.021344 275.064007,24.6746608 273.592,25.848 C272.119993,27.0213392 270.05068,27.608 267.384,27.608 C266.189327,27.608 265.080005,27.4533349 264.056,27.144 C263.031995,26.8346651 262.14667,26.3653365 261.4,25.736 C260.65333,25.1066635 260.072002,24.3280046 259.656,23.4 C259.239998,22.4719954 259.032,21.378673 259.032,20.12 L261.144,20.12 Z M279.8,27 L279.8,10.424 L281.72,10.424 L281.72,27 L279.8,27 Z M279.704,6.808 L279.704,3.96 L281.816,3.96 L281.816,6.808 L279.704,6.808 Z M292.44,27.064 C292.205332,27.1066669 291.896002,27.1813328 291.512,27.288 C291.127998,27.3946672 290.701336,27.448 290.232,27.448 C289.271995,27.448 288.541336,27.2080024 288.04,26.728 C287.538664,26.2479976 287.288,25.3893395 287.288,24.152 L287.288,12.024 L284.952,12.024 L284.952,10.424 L287.288,10.424 L287.288,5.816 L289.208,5.816 L289.208,10.424 L292.312,10.424 L292.312,12.024 L289.208,12.024 L289.208,23.384 C289.208,23.7893354 289.218667,24.1413318 289.24,24.44 C289.261333,24.7386682 289.325333,24.983999 289.432,25.176 C289.538667,25.368001 289.703999,25.5066662 289.928,25.592 C290.152001,25.6773338 290.466665,25.72 290.872,25.72 C291.128001,25.72 291.389332,25.6986669 291.656,25.656 C291.922668,25.6133331 292.183999,25.5600003 292.44,25.496 L292.44,27.064 Z M296.696,19.16 C296.696,20.0560045 296.813332,20.903996 297.048,21.704 C297.282668,22.504004 297.629331,23.1973304 298.088,23.784 C298.546669,24.3706696 299.127996,24.8399982 299.832,25.192 C300.536004,25.5440018 301.346662,25.72 302.264,25.72 C303.522673,25.72 304.599996,25.3893366 305.496,24.728 C306.392004,24.0666634 306.989332,23.1280061 307.288,21.912 L309.432,21.912 C309.197332,22.7013373 308.888002,23.4319966 308.504,24.104 C308.119998,24.7760034 307.640003,25.3626642 307.064,25.864 C306.487997,26.3653358 305.805337,26.7546653 305.016,27.032 C304.226663,27.3093347 303.309339,27.448 302.264,27.448 C300.941327,27.448 299.800005,27.2240022 298.84,26.776 C297.879995,26.3279978 297.09067,25.7146706 296.472,24.936 C295.85333,24.1573294 295.394668,23.2400053 295.096,22.184 C294.797332,21.1279947 294.648,19.9920061 294.648,18.776 C294.648,17.5599939 294.823998,16.418672 295.176,15.352 C295.528002,14.285328 296.02933,13.352004 296.68,12.552 C297.33067,11.751996 298.125329,11.122669 299.064,10.664 C300.002671,10.205331 301.069327,9.976 302.264,9.976 C304.546678,9.976 306.33866,10.7599922 307.64,12.328 C308.94134,13.8960078 309.581333,16.1733184 309.56,19.16 L296.696,19.16 Z M307.512,17.56 C307.512,16.7493293 307.400001,15.9866702 307.176,15.272 C306.951999,14.5573298 306.621336,13.9386693 306.184,13.416 C305.746664,12.8933307 305.197337,12.4773349 304.536,12.168 C303.874663,11.8586651 303.117338,11.704 302.264,11.704 C301.410662,11.704 300.65867,11.8639984 300.008,12.184 C299.35733,12.5040016 298.802669,12.930664 298.344,13.464 C297.885331,13.997336 297.517335,14.6159965 297.24,15.32 C296.962665,16.0240035 296.781334,16.7706627 296.696,17.56 L307.512,17.56 Z" id="logo_header" fill="#FFFFFF" fill-rule="nonzero"></path>
    </g>
</svg>