<?xml version="1.0" encoding="UTF-8" standalone="no"?>
<svg width="310px" height="32px" viewBox="0 0 310 32" version="1.1" xmlns="http://www.w3.org/2000/svg" xmlns:xlink="http://www.w3.org/1999/xlink">
    <!-- Generator: Sketch 42 (36781) - http://www.bohemiancoding.com/sketch -->
    <title>logo_header</title>
    <desc>Created with Sketch.</desc>
    <defs></defs>
    <g id="Assets" stroke="none" stroke-width="1" fill="none" fill-rule="evenodd">
        <g id="Artboard" transform="translate(-42.000000, -60.000000)" fill="#FFFFFF">
            <g id="logo_header" transform="translate(42.000000, 56.000000)">
                <path d="M-1.42108547e-14,31.5619498 L-1.42108547e-14,9.40390304 L13.986481,9.40390304 C23.0990128,9.40390304 24.7933237,13.498066 24.7933237,16.2494443 C24.7933237,18.9994224 23.0990128,23.0935854 13.986481,23.0627811 L5.50931581,23.0627811 L5.50931581,31.5619498 L-1.42108547e-14,31.5619498 Z M5.50931581,12.5613372 L13.7746921,12.5613372 C16.7411389,12.5613372 19.2840079,13.3104402 19.2840079,16.2186401 C19.2840079,19.0302267 16.2109654,19.8731426 13.6680964,19.8731426 L5.50931581,19.8731426 L5.50931581,12.5613372 Z M46.0908688,19.7490855 L46.0908688,27.9990199 C46.0908688,28.8741402 46.3026577,29.1877833 47.2564089,29.1877833 C47.5733909,29.1877833 47.9969686,29.1877833 48.5271421,29.1233745 L48.5271421,31.5933141 C47.7865823,31.7809399 46.1960619,31.9993699 45.3489064,31.9993699 C43.3348083,31.9993699 41.8522862,31.4995012 41.4287085,30.0306992 C39.4160129,31.4056883 36.1311815,31.9993699 33.4831193,31.9993699 C29.3497299,31.9993699 25.534725,30.4367551 25.534725,27.3115253 C25.534725,23.3111753 30.1968854,22.6558852 34.435468,22.3114378 C38.0386839,21.8423733 41.3221127,22.1252122 41.3221127,20.0305242 C41.3221127,18.2172749 38.5674548,17.8742277 36.5547593,17.8742277 C33.6935056,17.8742277 31.6808101,18.6863394 31.4690212,20.4057758 L26.3832831,20.4057758 C26.8068609,16.2808086 31.7874058,15.0612409 36.8731438,15.0612409 C41.4287085,15.0612409 46.0908688,16.3424171 46.0908688,19.7490855 Z M41.0051307,26.1549663 L41.0051307,23.5310055 C39.4160129,24.2170999 36.978337,24.1862956 34.7538526,24.4677343 C32.6345613,24.7183688 30.6218657,25.2812462 30.6218657,27.1547038 C30.6218657,28.7495231 33.5883125,29.1877833 35.2826234,29.1877833 C37.5085105,29.1877833 41.0051307,28.4050757 41.0051307,26.1549663 Z M71.4154881,31.5619498 L66.3283474,31.5619498 L66.3283474,29.3118404 C65.0562116,30.9360637 62.3015537,32.00021 59.7600872,32.00021 C53.7205979,32.00021 51.1777289,29.8747178 51.1777289,25.6867419 L51.1777289,15.4989411 L56.263467,15.4989411 L56.263467,25.3422946 C56.263467,28.1874858 57.8525848,29.1872232 60.6072427,29.1872232 C64.8458253,29.1872232 66.3283474,27.3123655 66.3283474,24.8130218 L66.3283474,15.4989411 L71.4154881,15.4989411 L71.4154881,31.5619498 Z M76.5002443,31.5613897 L76.5002443,9.40334296 L81.4807892,9.40334296 L81.4807892,31.5613897 L76.5002443,31.5613897 Z M90.6985142,36 L90.6985142,4 L91.97065,4 L91.97065,36 L90.6985142,36 Z M98.1160337,9.40446311 L103.837138,9.40446311 L109.559646,26.3425921 L109.664839,26.3425921 L116.022713,9.40446311 L121.743817,9.40446311 L127.995096,26.3425921 L128.101691,26.3425921 L133.927989,9.40446311 L139.651899,9.40446311 L130.857752,31.5625098 L125.24184,31.5625098 L118.883966,14.6243809 L118.778773,14.6243809 L112.207708,31.5625098 L106.486603,31.5625098 L98.1160337,9.40446311 Z M160.312955,24.4356699 L143.465221,24.4356699 C143.465221,26.967218 145.374126,29.1879233 149.611306,29.1879233 C152.577752,29.1879233 154.272063,28.3114028 155.225815,26.5303579 L159.995973,26.5303579 C158.935626,30.0308392 154.590448,31.9995099 149.611306,31.9995099 C142.406276,31.9995099 138.380885,28.4990286 138.380885,23.5605496 C138.380885,18.9987223 142.618065,15.0613809 149.399517,15.0613809 C156.711142,15.0613809 161.160111,19.6554126 160.312955,24.4356699 Z M143.465221,22.1253522 L155.225815,22.1253522 C155.120621,19.8738427 152.894734,17.8743677 149.399517,17.8743677 C146.010895,17.8743677 143.571816,19.7492255 143.465221,22.1253522 Z M164.337926,12.7484029 L164.337926,9.40474315 L169.318471,9.40474315 L169.318471,12.7484029 L164.337926,12.7484029 Z M164.337926,31.5627899 L164.337926,15.4997812 L169.318471,15.4997812 L169.318471,31.5627899 L164.337926,31.5627899 Z M178.324968,26.4051807 C178.643352,28.4676643 180.869239,29.1873633 183.515899,29.1873633 C185.424804,29.1873633 188.813426,28.9367288 188.709635,27.0926752 C188.604442,25.2178174 184.896033,24.9993874 181.186221,24.4351098 C177.372619,23.8736326 173.769403,22.9369038 173.769403,19.6548525 C173.769403,16.1557714 179.172123,15.0608209 183.410706,15.0608209 C188.074269,15.0608209 192.418044,16.4358099 193.053411,19.9992999 L187.757287,19.9992999 C187.227113,18.3428721 185.211612,17.8738076 183.093724,17.8738076 C181.611202,17.8738076 178.853739,18.1244421 178.853739,19.5302354 C178.853739,21.2482716 182.56355,21.4989061 186.271959,22.0925877 C189.980368,22.6862694 193.795373,23.6243984 193.795373,26.7790321 C193.795373,30.5931566 188.180864,31.9989499 183.515899,31.9989499 C177.691004,31.9989499 173.345825,30.1857005 173.345825,26.4051807 L178.324968,26.4051807 Z M201.63619,26.4051807 C201.847979,28.4676643 204.072463,29.1873633 206.828524,29.1873633 C208.736026,29.1873633 212.019455,28.9367288 211.912859,27.0926752 C211.806264,25.2178174 208.099257,24.9993874 204.390848,24.4351098 C200.682439,23.8736326 197.080625,22.9369038 197.080625,19.6548525 C197.080625,16.1557714 202.483346,15.0608209 206.616735,15.0608209 C211.384088,15.0608209 215.621268,16.4358099 216.25944,19.9992999 L210.960511,19.9992999 C210.53553,18.3428721 208.522835,17.8738076 206.299753,17.8738076 C204.814426,17.8738076 202.059768,18.1244421 202.059768,19.5302354 C202.059768,21.2482716 205.874773,21.4989061 209.581779,22.0925877 C213.291591,22.6862694 217,23.6243984 217,26.7790321 C217,30.5931566 211.489282,31.9989499 206.721928,31.9989499 C200.89563,31.9989499 196.657048,30.1857005 196.550452,26.4051807 L201.63619,26.4051807 Z" id="Combined-Shape"></path>
                <text id="InSite" font-family="Helvetica-Light, Helvetica" font-size="32" font-weight="300">
                    <tspan x="230.968" y="31">InSite</tspan>
                </text>
            </g>
        </g>
    </g>
</svg>